<svg 
 xmlns="http://www.w3.org/2000/svg"
 xmlns:xlink="http://www.w3.org/1999/xlink"
 width="9px" height="16px">
<path fill-rule="evenodd"  fill="rgb(255, 255, 255)"
 d="M6.508,0.684 C5.477,0.684 4.653,0.989 4.034,1.599 C3.415,2.209 3.105,3.068 3.105,4.175 L3.105,6.122 L0.829,6.122 L0.829,8.764 L3.105,8.764 L3.105,15.541 L5.838,15.541 L5.838,8.764 L8.106,8.764 L8.454,6.122 L5.838,6.122 L5.838,4.435 C5.838,4.006 5.927,3.684 6.106,3.470 C6.284,3.256 6.629,3.148 7.141,3.148 L8.543,3.148 L8.543,0.792 C8.060,0.720 7.382,0.684 6.508,0.684 L6.508,0.684 Z"/>
</svg>