<svg 
 xmlns="http://www.w3.org/2000/svg"
 xmlns:xlink="http://www.w3.org/1999/xlink"
 width="15px" height="13px">
<path fill-rule="evenodd"  fill="rgb(255, 255, 255)"
 d="M12.784,2.773 C13.409,2.399 13.832,1.869 14.052,1.184 C13.480,1.524 12.871,1.756 12.222,1.880 C11.650,1.274 10.948,0.970 10.114,0.970 C9.317,0.970 8.637,1.251 8.075,1.813 C7.512,2.376 7.230,3.056 7.230,3.854 C7.230,4.068 7.254,4.288 7.302,4.515 C6.124,4.455 5.017,4.159 3.985,3.626 C2.952,3.094 2.076,2.384 1.355,1.496 C1.093,1.943 0.963,2.428 0.963,2.952 C0.963,3.446 1.078,3.904 1.311,4.327 C1.543,4.750 1.856,5.092 2.248,5.354 C1.784,5.336 1.349,5.214 0.945,4.988 L0.945,5.023 C0.945,5.720 1.164,6.331 1.601,6.858 C2.039,7.385 2.590,7.717 3.257,7.854 C3.007,7.919 2.754,7.952 2.498,7.952 C2.331,7.952 2.150,7.937 1.954,7.907 C2.138,8.485 2.477,8.960 2.972,9.332 C3.466,9.704 4.025,9.895 4.650,9.907 C3.602,10.729 2.409,11.140 1.070,11.140 C0.814,11.140 0.582,11.128 0.374,11.104 C1.713,11.967 3.189,12.399 4.802,12.399 C5.825,12.399 6.787,12.237 7.686,11.912 C8.584,11.588 9.353,11.153 9.989,10.608 C10.626,10.064 11.175,9.437 11.637,8.729 C12.098,8.020 12.442,7.281 12.668,6.510 C12.894,5.739 13.007,4.967 13.007,4.193 C13.007,4.027 13.004,3.901 12.998,3.818 C13.564,3.407 14.046,2.910 14.444,2.327 C13.891,2.565 13.338,2.714 12.784,2.773 L12.784,2.773 Z"/>
</svg>