<svg 
 xmlns="http://www.w3.org/2000/svg"
 xmlns:xlink="http://www.w3.org/1999/xlink"
 width="29px" height="26px">
<path fill-rule="evenodd"  fill="rgb(255, 255, 255)"
 d="M28.164,9.094 L20.164,1.094 C19.966,0.896 19.731,0.797 19.461,0.797 C19.190,0.797 18.955,0.896 18.757,1.094 C18.560,1.292 18.461,1.526 18.461,1.797 L18.461,5.797 L14.961,5.797 C7.534,5.797 2.976,7.896 1.289,12.094 C0.737,13.490 0.461,15.224 0.461,17.297 C0.461,19.026 1.122,21.375 2.445,24.344 C2.477,24.416 2.532,24.542 2.609,24.719 C2.687,24.896 2.758,25.052 2.821,25.187 C2.883,25.323 2.950,25.437 3.023,25.531 C3.148,25.708 3.294,25.797 3.461,25.797 C3.617,25.797 3.740,25.745 3.828,25.640 C3.916,25.536 3.961,25.406 3.961,25.250 C3.961,25.156 3.948,25.018 3.922,24.836 C3.896,24.654 3.883,24.531 3.883,24.469 C3.831,23.760 3.804,23.120 3.804,22.547 C3.804,21.495 3.896,20.552 4.078,19.719 C4.260,18.886 4.513,18.164 4.836,17.555 C5.159,16.946 5.575,16.419 6.086,15.977 C6.596,15.534 7.146,15.172 7.735,14.890 C8.323,14.609 9.016,14.388 9.812,14.227 C10.610,14.065 11.411,13.953 12.219,13.891 C13.026,13.828 13.940,13.797 14.961,13.797 L18.461,13.797 L18.461,17.797 C18.461,18.068 18.560,18.302 18.757,18.500 C18.955,18.698 19.190,18.797 19.461,18.797 C19.731,18.797 19.966,18.698 20.164,18.500 L28.164,10.500 C28.362,10.302 28.461,10.068 28.461,9.797 C28.461,9.526 28.362,9.292 28.164,9.094 L28.164,9.094 Z"/>
</svg>