<svg 
 xmlns="http://www.w3.org/2000/svg"
 xmlns:xlink="http://www.w3.org/1999/xlink"
 width="21px" height="21px">
<path fill-rule="evenodd"  fill="rgb(0, 0, 0)"
 d="M19.768,19.091 L14.954,14.276 C16.147,12.822 16.867,10.958 16.867,8.926 C16.867,4.267 13.086,0.486 8.426,0.486 C3.762,0.486 -0.014,4.267 -0.014,8.926 C-0.014,13.586 3.762,17.366 8.426,17.366 C10.457,17.366 12.317,16.651 13.772,15.458 L18.587,20.268 C18.914,20.596 19.442,20.596 19.768,20.268 C20.096,19.946 20.096,19.414 19.768,19.091 ZM8.426,15.687 C4.695,15.687 1.662,12.654 1.662,8.926 C1.662,5.199 4.695,2.161 8.426,2.161 C12.154,2.161 15.191,5.199 15.191,8.926 C15.191,12.654 12.154,15.687 8.426,15.687 Z"/>
</svg>