<svg 
 xmlns="http://www.w3.org/2000/svg"
 xmlns:xlink="http://www.w3.org/1999/xlink"
 width="15px" height="12px">
<path fill-rule="evenodd"  fill="rgb(255, 255, 255)"
 d="M14.199,4.625 C12.491,5.781 11.194,6.680 10.309,7.320 C10.011,7.539 9.771,7.710 9.586,7.832 C9.401,7.954 9.155,8.080 8.847,8.207 C8.540,8.335 8.254,8.398 7.988,8.398 L7.980,8.398 L7.973,8.398 C7.707,8.398 7.421,8.335 7.113,8.207 C6.806,8.080 6.559,7.954 6.375,7.832 C6.190,7.710 5.949,7.539 5.652,7.320 C4.949,6.805 3.655,5.906 1.770,4.625 C1.473,4.427 1.209,4.200 0.980,3.945 L0.980,10.149 C0.980,10.492 1.103,10.786 1.347,11.031 C1.593,11.276 1.887,11.398 2.231,11.398 L13.731,11.398 C14.074,11.398 14.369,11.276 14.613,11.031 C14.858,10.786 14.980,10.492 14.980,10.149 L14.980,3.945 C14.756,4.196 14.496,4.422 14.199,4.625 L14.199,4.625 ZM14.610,0.766 C14.362,0.521 14.069,0.398 13.731,0.398 L2.231,0.398 C1.829,0.398 1.521,0.534 1.305,0.805 C1.088,1.076 0.980,1.414 0.980,1.820 C0.980,2.149 1.124,2.504 1.410,2.887 C1.697,3.270 2.001,3.570 2.324,3.789 C2.502,3.914 3.035,4.285 3.926,4.902 C4.817,5.519 5.499,5.995 5.973,6.328 C6.025,6.365 6.136,6.444 6.304,6.566 C6.474,6.689 6.614,6.788 6.727,6.863 C6.838,6.939 6.974,7.023 7.133,7.117 C7.292,7.211 7.441,7.281 7.582,7.328 C7.723,7.375 7.853,7.399 7.973,7.399 L7.980,7.399 L7.988,7.399 C8.108,7.399 8.239,7.375 8.379,7.328 C8.519,7.281 8.670,7.211 8.828,7.117 C8.987,7.023 9.122,6.939 9.234,6.863 C9.346,6.788 9.487,6.689 9.656,6.566 C9.826,6.444 9.936,6.365 9.988,6.328 C10.468,5.995 11.686,5.149 13.644,3.789 C14.025,3.524 14.343,3.203 14.598,2.828 C14.853,2.453 14.980,2.060 14.980,1.648 C14.980,1.305 14.857,1.010 14.610,0.766 Z"/>
</svg>