<svg 
 xmlns="http://www.w3.org/2000/svg"
 xmlns:xlink="http://www.w3.org/1999/xlink"
 width="25.5px" height="26.5px">
<path fill-rule="evenodd"  stroke="rgb(255, 255, 255)" stroke-width="1.5px" stroke-linecap="butt" stroke-linejoin="miter" fill="none"
 d="M23.780,13.263 C23.485,13.563 23.003,13.563 22.708,13.263 L13.001,3.488 L13.001,24.250 C13.001,24.664 12.663,25.000 12.250,25.000 C11.836,25.000 11.499,24.664 11.499,24.250 L11.499,3.504 L1.809,13.263 C1.512,13.563 1.032,13.563 0.734,13.263 C0.438,12.963 0.438,12.478 0.734,12.178 L11.614,1.221 C11.700,1.135 11.802,1.080 11.910,1.044 C11.918,1.041 11.927,1.041 11.935,1.039 C12.041,1.007 12.149,1.001 12.258,1.017 C12.487,0.984 12.726,1.043 12.902,1.221 L23.780,12.178 C24.078,12.478 24.078,12.963 23.780,13.263 Z"/>
</svg>