<svg 
 xmlns="http://www.w3.org/2000/svg"
 xmlns:xlink="http://www.w3.org/1999/xlink"
 width="49px" height="35px">
<path fill-rule="evenodd"  fill="rgb(0, 0, 0)"
 d="M47.011,19.662 L1.489,19.662 C0.805,19.662 0.250,19.107 0.250,18.423 L0.250,15.902 C0.250,15.217 0.805,14.662 1.489,14.662 L47.011,14.662 C47.695,14.662 48.250,15.217 48.250,15.902 L48.250,18.423 C48.250,19.107 47.695,19.662 47.011,19.662 ZM47.016,5.100 L1.485,5.100 C0.803,5.100 0.250,4.547 0.250,3.865 L0.250,1.396 C0.250,0.715 0.803,0.162 1.485,0.162 L47.016,0.162 C47.698,0.162 48.250,0.715 48.250,1.396 L48.250,3.865 C48.250,4.547 47.698,5.100 47.016,5.100 ZM1.485,29.225 L39.016,29.225 C39.697,29.225 40.250,29.777 40.250,30.459 L40.250,32.928 C40.250,33.609 39.697,34.162 39.016,34.162 L1.485,34.162 C0.803,34.162 0.250,33.609 0.250,32.928 L0.250,30.459 C0.250,29.777 0.803,29.225 1.485,29.225 Z"/>
</svg>