<svg xmlns="http://www.w3.org/2000/svg" viewBox="0 0 1600 900" style="background:transparent">
  <defs>
    <style>
      .lee { font-family: sans-serif; font-size: 56px; font-weight: bold; }
      .tag { font-family: sans-serif; font-size: 30px; letter-spacing: 2px; }
      .path-icon { fill: none; stroke: black; stroke-width: 2.5; stroke-linecap: round; stroke-linejoin: round; }
      .fill-icon { fill: black; stroke: none; }
    </style>
  </defs>

  <g transform="translate(100, 50)">
    <g transform="translate(0, 50)">
      <path d="M 125,125 A 60,60 0 1 0 245,125" class="path-icon"/>
      <path d="M 245,125 A 60,60 0 1 0 365,125" class="path-icon"/>
      <path d="M 125,125 A 60,60 0 1 1 245,125" class="path-icon"/>
      <path d="M 245,125 A 60,60 0 1 1 365,125" class="path-icon"/>
      <rect x="180" y="60" width="130" height="130" rx="10" ry="10" class="path-icon"/>
      
      <path d="M 195,125 l -10,-10 m 0,20 l 10,-10" class="path-icon" style="stroke-width:1.5"/>
      <path d="M 295,125 l 10,-10 m 0,20 l -10,-10" class="path-icon" style="stroke-width:1.5"/>
      <path d="M 235,100 l 10,-10 m 10,0 l 10,10 m 0,10 l -10,10 m -10,0 l -10,-10" class="path-icon" style="stroke-width:1.5"/>
      <path d="M 235,130 l 10,10 m 10,0 l 10,-10 m 0,-10 l -10,-10 m -10,0 l -10,10" class="path-icon" style="stroke-width:1.5"/>
      <path d="M 215,85 A 3,3 0 1 1 210,80 A 3,3 0 1 1 215,85" class="fill-icon"/>
      <path d="M 275,85 A 3,3 0 1 1 270,80 A 3,3 0 1 1 275,85" class="fill-icon"/>
      <path d="M 215,145 A 3,3 0 1 1 210,140 A 3,3 0 1 1 215,145" class="fill-icon"/>
      <path d="M 275,145 A 3,3 0 1 1 270,140 A 3,3 0 1 1 275,145" class="fill-icon"/>
      
      <path d="M 230,125 A 25,25 0 1 0 255,100 M 230,125 A 25,25 0 1 1 255,150" class="path-icon"/>
    </g>
    
    <text x="245" y="320" text-anchor="middle" class="lee">LEE JAE KWANG</text>
    <text x="245" y="360" text-anchor="middle" class="tag">DESIGN / PUBLISH / DEVELOP</text>
  </g>

  <g transform="translate(900, 50)">
    <g transform="translate(0, 50)">
      <path d="M 40,30 l 30,0 m 0,30 l -30,0 m 30,-30 l 0,120 A 10,10 0 0 1 60,160 l -20,0" class="path-icon"/>
      <path d="M 100,60 l 60,0 m -30,-30 l 0,90 m -30,30 l 60,0" class="path-icon"/>
      <path d="M 190,30 l 30,0 m 0,120 l -30,0 m 30,-120 l 0,120" class="path-icon"/>
      <circle cx="215" cy="100" r="10" class="path-icon"/>
      <path d="M 260,30 l 0,120 m 0,-120 l 40,40 m -40,40 l 40,40" class="path-icon"/>
      <path d="M 330,30 l 30,0 m -15,0 l 0,90 m -15,30 l 30,0" class="path-icon"/>
      <path d="M 390,30 l 60,0 m -30,0 l 0,90 m -30,30 l 60,0" class="path-icon"/>
      <path d="M 480,30 l 0,120 m 0,-120 l 40,40 m -40,40 l 40,40" class="path-icon"/>
      
      <path d="M 125,45 l -10,-10 m 0,20 l 10,-10" class="path-icon" style="stroke-width:1.5"/>
      <path d="M 135,45 l 10,-10 m 0,20 l -10,-10" class="path-icon" style="stroke-width:1.5"/>
      <path d="M 405,45 l -10,-10 m 0,20 l 10,-10" class="path-icon" style="stroke-width:1.5"/>
      <path d="M 415,45 l 10,-10 m 0,20 l -10,-10" class="path-icon" style="stroke-width:1.5"/>
    </g>
    
    <text x="245" y="320" text-anchor="middle" class="lee">LEE JAE KWANG</text>
    <text x="245" y="360" text-anchor="middle" class="tag">WEB DEV | PUBLISHER | DESIGNER</text>
  </g>

  <g transform="translate(100, 500)">
    <g transform="translate(0, 50)">
      <rect x="60" y="60" width="10" height="10" class="fill-icon"/>
      <rect x="75" y="60" width="10" height="10" class="fill-icon"/>
      <rect x="60" y="75" width="10" height="10" class="fill-icon"/>
      <rect x="75" y="75" width="10" height="10" class="fill-icon"/>
      <rect x="60" y="90" width="10" height="10" class="fill-icon"/>
      <rect x="75" y="90" width="10" height="10" class="fill-icon"/>
      <rect x="60" y="105" width="10" height="10" class="fill-icon"/>
      <rect x="75" y="105" width="10" height="10" class="fill-icon"/>
      <rect x="60" y="120" width="10" height="10" class="fill-icon"/>
      <rect x="75" y="120" width="10" height="10" class="fill-icon"/>
      <rect x="45" y="135" width="10" height="10" class="fill-icon"/>
      <rect x="60" y="135" width="10" height="10" class="fill-icon"/>
      <rect x="75" y="135" width="10" height="10" class="fill-icon"/>
      <rect x="90" y="135" width="10" height="10" class="fill-icon"/>
      
      <path d="M 90,140 l 60,-60 m 0,60 l -60,-60" class="path-icon"/>
      <path d="M 180,60 A 25,25 0 1 0 205,85 m 0,30 l 0,60" class="path-icon"/>
      <path d="M 230,120 l 0,60 m 0,-60 l 30,20 m -30,20 l 30,20" class="path-icon"/>
      <path d="M 280,120 l 0,60 m 0,-60 l 30,20 m -30,20 l 30,20" class="path-icon"/>
    </g>
    
    <text x="245" y="220" text-anchor="middle" class="jae">JAE KWANG</text>
    <text x="245" y="320" text-anchor="middle" class="lee">LEE JAE KWANG</text>
    <text x="245" y="360" text-anchor="middle" class="tag">FRONT-END | PUBLISHING | DESIGN</text>
  </g>

  <g transform="translate(900, 500)">
    <g transform="translate(0, 50)">
      <path d="M 100,40 l 60,0" class="path-icon"/>
      <path d="M 130,40 A 110,110 0 0 1 20,150 l 40,0" class="path-icon"/>
      <path d="M 130,120 l 80,-80" class="path-icon"/>
      <path d="M 130,120 l 80,80" class="path-icon"/>
      
      <path d="M 130,120 l -15,-15 m 0,30 l 15,-15" class="path-icon" style="stroke-width:1.5"/>
      <rect x="190" y="140" width="20" height="20" class="path-icon" style="stroke-width:1.5"/>
      <line x1="190" y1="150" x2="210" y2="150" class="path-icon" style="stroke-width:1.5"/>
      <line x1="200" y1="140" x2="200" y2="160" class="path-icon" style="stroke-width:1.5"/>
    </g>
    
    <text x="245" y="320" text-anchor="middle" class="lee">LEE JAE KWANG</text>
    <text x="245" y="360" text-anchor="middle" class="tag">DEVELOPER | PUBLISHER | DESIGNER</text>
  </g>
</svg>